<?xml version="1.0" encoding="UTF-8" standalone="no"?>
<!-- Created with Inkscape (http://www.inkscape.org/) -->

<svg
   width="112.24746mm"
   height="112.24745mm"
   viewBox="0 0 112.24746 112.24745"
   version="1.1"
   id="svg1484"
   inkscape:version="1.2.2 (b0a8486541, 2022-12-01)"
   sodipodi:docname="cnp-logo.svg"
   xmlns:inkscape="http://www.inkscape.org/namespaces/inkscape"
   xmlns:sodipodi="http://sodipodi.sourceforge.net/DTD/sodipodi-0.dtd"
   xmlns="http://www.w3.org/2000/svg"
   xmlns:svg="http://www.w3.org/2000/svg">
  <sodipodi:namedview
     id="namedview1486"
     pagecolor="#ffffff"
     bordercolor="#000000"
     borderopacity="0.25"
     inkscape:showpageshadow="2"
     inkscape:pageopacity="0.0"
     inkscape:pagecheckerboard="0"
     inkscape:deskcolor="#d1d1d1"
     inkscape:document-units="mm"
     showgrid="false"
     inkscape:zoom="0.76078844"
     inkscape:cx="-1.3144259"
     inkscape:cy="251.71255"
     inkscape:window-width="1920"
     inkscape:window-height="1007"
     inkscape:window-x="0"
     inkscape:window-y="0"
     inkscape:window-maximized="1"
     inkscape:current-layer="layer1" />
  <defs
     id="defs1481" />
  <g
     inkscape:label="Calque 1"
     inkscape:groupmode="layer"
     id="layer1"
     transform="translate(-53.773225,-81.94302)">
    <g
       id="g1385"
       transform="matrix(0.26458333,0,0,0.26458333,201.36845,241.5967)">
      <rect
         style="fill:#ffffff;stroke-width:0.895961;-inkscape-stroke:none;paint-order:stroke fill markers;stop-color:#000000"
         id="rect1073"
         width="300"
         height="300"
         x="370.79443"
         y="-112.50255"
         transform="rotate(-135.57968)" />
      <path
         d="m -241.8353,-300.88743 c -5.48362,-4.07465 -6.9802,-9.81191 -3.75252,-15.21916 2.06433,-3.38583 29.76875,-38.02867 42.69319,-53.38544 4.01322,-4.7685 7.29676,-8.931 7.29676,-9.25 0,-0.31901 -25.8382,-0.58001 -57.41821,-0.58001 -31.58002,0 -58.14666,-0.27953 -59.03699,-0.62118 -2.78999,-1.07062 -4.5448,-5.96651 -4.5448,-12.67994 0,-7.31726 1.38538,-12.16578 3.81988,-13.36871 0.92406,-0.45659 27.66212,-1.05517 59.41789,-1.33017 l 57.73777,-0.5 -7.19511,-8.5 -43.49499,-51.42428 c -3.1585,-5.39795 -0.32305,-12.74756 6.03088,-15.63234 8.80205,-3.99626 14.69126,-1.00858 23.00814,7.93888 l 83.67554,81.9993 -90.55578,92.40693 c -6.7551,6.89319 -14.20625,2.03185 -17.68165,0.14612 z"
         style="fill:#000000"
         id="path953-7"
         sodipodi:nodetypes="ccssssssscccscccc" />
      <path
         d="m -288.79372,-297.36779 c -4.25765,-0.76506 -7.12135,-3.46831 -8.18755,-7.72897 -0.3601,-1.43864 -0.3179,-4.81015 0.079,-6.29963 0.6803,-2.55472 2.4806,-5.04059 4.5128,-6.23159 2.15975,-1.26571 5.72415,-1.74707 8.38285,-1.13211 3.5277,0.81595 6.2231,3.55787 7.2258,7.35053 0.4254,1.60884 0.4281,5.09577 0.01,6.68671 -0.9115,3.42883 -3.2396,5.93976 -6.427,6.9318 -1.4874,0.46292 -4.2192,0.66974 -5.5909,0.42326 z m 3.8337,-4.14317 c 1.4069,-0.41781 2.5839,-1.4751 3.2279,-2.89977 0.4382,-0.96936 0.5015,-1.43023 0.5015,-3.65334 0,-2.45698 -0.024,-2.59322 -0.7074,-3.98098 -1.124,-2.28309 -2.9392,-3.28336 -5.5317,-3.04827 -1.573,0.14263 -2.8367,0.82406 -3.7489,2.02149 -1.05265,1.38201 -1.39555,2.844 -1.29315,5.51422 0.073,1.9093 0.1696,2.40913 0.6377,3.30738 0.73805,1.41634 1.60785,2.20002 2.96035,2.66715 1.3874,0.47922 2.5137,0.49977 3.9537,0.0721 z m -136.05385,-6.65448 v -10.58162 h 2.286 2.2859 l 3.9436,5.8728 c 2.1689,3.23004 4.283,6.34867 4.6979,6.93029 l 0.7543,1.05749 v -6.93029 -6.93029 h 2.2222 2.2221 v 10.58162 10.58163 h -2.2801 -2.2802 l -4.1808,-6.08443 c -2.2994,-3.34644 -4.3663,-6.32253 -4.5932,-6.61352 -0.4113,-0.52767 -0.4124,-0.51145 -0.4171,6.08443 v 6.61352 h -2.328 -2.328 z m 22.4329,0 v -10.58162 h 6.7723 6.7722 v 2.01051 2.01051 h -4.5501 -4.5501 v 2.32795 2.32796 h 4.2327 4.2326 v 1.90022 1.90022 l -4.1796,0.0574 -4.1799,0.0574 v 2.29095 2.29094 l 4.5606,-0.0231 c 2.5083,-0.0127 4.6036,0.0194 4.6559,0.0713 0.053,0.0519 0.065,0.95989 0.027,2.01769 l -0.068,1.92328 h -6.863 -6.8631 z m 19.5992,5.26832 c 1.9233,-2.92232 3.4485,-5.43915 3.3896,-5.59296 -0.059,-0.15381 -1.5239,-2.40551 -3.2552,-5.00378 -1.7311,-2.59826 -3.2185,-4.84316 -3.3053,-4.98866 -0.1225,-0.20595 0.4308,-0.26454 2.4989,-0.26454 h 2.6563 l 2.1481,3.29335 2.148,3.29335 2.1391,-3.29249 2.139,-3.29249 2.4867,-8.5e-4 c 1.3676,-4.2e-4 2.4867,0.0491 2.4867,0.11016 0,0.061 -1.4505,2.32288 -3.2232,5.02627 -1.7727,2.70339 -3.2222,5.10572 -3.2211,5.33852 0,0.2328 1.5478,2.73271 3.4369,5.55535 l 3.435,5.13209 h -2.7219 -2.7219 l -2.2034,-3.3799 -2.2033,-3.3799 -2.2012,3.3799 -2.201,3.37989 h -2.6018 -2.6018 z m 23.9971,-3.25781 v -8.57111 h -3.2803 -3.2802 v -2.01051 -2.01051 h 8.677 8.6769 v 2.01051 2.01051 h -3.0688 -3.0685 v 8.57111 8.57112 h -2.328 -2.328 z m 20.3168,-2.03448 V -318.795 l 5.1321,0.095 c 5.9104,0.10938 6.7248,0.29611 8.5851,1.96861 1.5199,1.3665 2.0456,2.67293 2.0476,5.08907 0,1.72046 -0.064,2.04934 -0.6369,3.16845 -0.4285,0.83803 -0.9759,1.50374 -1.6645,2.02413 -1.5734,1.1892 -2.7676,1.50525 -6.1186,1.61948 l -2.9193,0.0995 0.062,3.57374 0.062,3.57375 -2.2752,-2.1e-4 -2.2749,-4.2e-4 z m 9.6753,-0.75271 c 1.0348,-0.49111 1.5394,-1.4045 1.5404,-2.78842 8e-4,-1.3177 -0.4053,-2.13039 -1.3506,-2.70146 -0.539,-0.32561 -1.0835,-0.39836 -2.9871,-0.39904 l -2.3279,-8.4e-4 -0.059,3.12158 -0.059,3.12158 h 2.2488 c 1.6621,0 2.4429,-0.0922 2.9935,-0.35342 z m 9.16,0.75556 v -10.60275 l 5.3438,0.088 c 6.0045,0.0988 6.8325,0.26882 8.575,1.76031 2.4332,2.08271 2.8625,6.44999 0.9003,9.15869 -0.5808,0.80172 -2.0013,2.01077 -2.5951,2.20871 -0.185,0.0616 2.3709,4.59169 4.2392,7.51366 l 0.3045,0.47617 h -2.6225 -2.6225 l -2.0049,-3.69722 -2.0048,-3.69722 -1.4285,-0.006 -1.4285,-0.006 v 3.70357 3.70356 h -2.328 -2.3279 v -10.60274 z m 9.9395,-0.98446 c 1.8999,-0.95844 2.0652,-4.11636 0.2768,-5.28849 -0.4401,-0.28841 -1.1309,-0.3893 -3.0643,-0.44755 l -2.4961,-0.0752 v 3.09096 3.09097 l 2.275,-4.3e-4 c 1.7447,-2.1e-4 2.4461,-0.0866 3.0086,-0.37035 z m -95.2273,-16.00809 c -4.6939,-1.04536 -7.4827,-5.11056 -7.4928,-10.92182 -0.01,-3.48792 0.7494,-5.81708 2.5284,-7.79577 2.9162,-3.24352 7.9231,-4.25831 12.5254,-2.53866 2.2651,0.8464 4.6574,3.8232 5.0511,6.28563 l 0.1398,0.87431 h -2.4508 -2.4511 l -0.4434,-1.00262 c -0.563,-1.27276 -1.1557,-1.91473 -2.2217,-2.40677 -1.0217,-0.4715 -3.3988,-0.53345 -4.3982,-0.11462 -2.8229,1.18296 -4.1612,5.0386 -3.2063,9.23707 0.5698,2.50541 2.0726,4.07677 4.2939,4.48988 2.5024,0.46538 4.6363,-0.44074 5.5449,-2.35455 l 0.511,-1.07615 h 2.3724 2.3724 l -0.3221,1.11107 c -0.678,2.33853 -2.5193,4.61258 -4.4301,5.47118 -2.2462,1.00933 -5.3971,1.30435 -7.9228,0.74182 z m 16.0839,-10.72245 v -10.80552 l 5.8728,0.0652 c 6.5826,0.073 6.909,0.13835 8.6776,1.73615 2.9123,2.63116 2.4256,8.46271 -0.8896,10.65865 -0.551,0.3649 -1.0955,0.69472 -1.21,0.73293 -0.1148,0.0382 0.7324,1.59079 1.8824,3.45018 1.1502,1.8594 2.3079,3.73785 2.5731,4.17434 l 0.4821,0.79362 h -2.7395 -2.7396 l -2.1982,-3.86229 -2.1981,-3.8623 h -1.4276 -1.4276 v 3.8623 3.86229 h -2.328 -2.328 z m 10.0239,-1.12607 c 1.167,-0.48764 1.616,-1.25901 1.616,-2.77687 0,-1.03212 -0.1001,-1.44523 -0.4589,-1.9018 -0.7358,-0.93542 -1.5879,-1.16687 -4.2961,-1.16687 h -2.4406 v 3.06867 3.06867 h 2.4406 c 1.5953,0 2.6824,-0.10106 3.139,-0.2918 z m 10.5045,1.03252 v -10.89908 h 7.0897 7.0897 v 2.00646 2.00646 l -4.7089,0.057 -4.7088,0.057 -0.06,2.38086 -0.06,2.38087 h 4.4512 4.4514 v 2.01051 2.01051 h -4.4443 -4.4444 v 2.32405 2.32406 l 4.9204,0.0568 4.9206,0.0568 0.061,2.06341 0.061,2.06342 h -7.3089 -7.3089 z m 17.1423,10.82775 c 0,-0.0466 1.3203,-3.64474 2.9341,-7.99584 1.6138,-4.3511 3.4011,-9.1791 3.9717,-10.72888 l 1.0374,-2.81778 h 2.8489 c 2.171,0 2.8687,0.0662 2.9315,0.27819 0.08,0.26867 7.4611,20.20771 7.764,20.97199 0.1391,0.35115 -0.029,0.37297 -2.4424,0.31745 l -2.5917,-0.0596 -0.7929,-2.22215 -0.7928,-2.22214 -4.2124,-0.0571 -4.2122,-0.0571 -0.7487,2.27928 -0.7488,2.27929 -2.4728,0.0596 c -1.3602,0.0328 -2.4729,0.0215 -2.4729,-0.0251 z m 12.1875,-12.57372 c -0.7291,-2.18246 -1.3729,-4.11096 -1.4306,-4.28556 -0.058,-0.1746 -0.7061,1.49201 -1.4411,3.70357 -0.7349,2.21156 -1.3799,4.14006 -1.4334,4.28556 -0.075,0.20339 0.5646,0.26454 2.7667,0.26454 h 2.864 z m 14.4782,3.75648 v -8.88857 h -3.2804 -3.2803 v -1.90469 -1.9047 h 8.8887 8.8885 v 1.89918 1.89919 l -3.2274,0.0584 -3.2274,0.0584 -0.055,8.83565 -0.055,8.83566 h -2.3256 -2.3257 z m 14.6027,-2.01051 v -10.89908 h 7.0896 7.0897 l 2e-4,2.06342 2e-4,2.06342 -4.7619,-0.0606 -4.7619,-0.0606 v 2.4415 2.4415 h 4.4443 4.4442 v 2.01051 2.01051 h -4.4442 -4.4443 v 2.32795 2.32796 h 4.9733 4.97335 v 2.11633 2.11632 h -7.30125 -7.3013 z"
         style="fill:#000000;stroke-width:0.211633"
         id="path996-5" />
      <path
         d="m -417.80895,-456.2471 c -2.6521,-2.65213 -3.143,-6.39063 -1.2929,-9.84753 0.6389,-1.19383 6.6372,-8.25175 13.3295,-15.68426 l 12.1679,-13.51366 -10.9444,-12 c -6.0194,-6.6 -11.7911,-13.35 -12.8258,-15 -2.2909,-3.65298 -2.4091,-7.31218 -0.3322,-10.27749 1.3695,-1.95515 2.4442,-2.22251 8.9338,-2.22251 h 7.3771 l 16.2884,17.48448 c 8.9586,9.61647 16.6336,18.41754 17.0554,19.55794 0.4614,1.24714 0.2016,3.34558 -0.6517,5.26552 -1.8905,4.25322 -30.9394,35.8639 -34.3663,37.39696 -1.4814,0.66269 -4.8513,1.22519 -7.4888,1.25 -3.7949,0.0357 -5.3076,-0.46707 -7.25,-2.40945 z m 69.78419,-38.2591 0.26125,-40.78635 h 9.64368 9.64368 l 15.85632,25.70167 c 8.72098,14.13592 16.20765,25.72342 16.63706,25.75 0.42941,0.0266 0.73782,-11.46302 0.68537,-25.53245 l -0.0954,-25.58078 9.06462,-0.34229 9.06463,-0.34229 v 40.95805 40.95806 l -10.12982,-0.28499 -10.12978,-0.28498 -15.12018,-23.18428 c -8.3161,-12.75136 -15.4728,-23.52897 -15.90377,-23.95026 -0.43097,-0.42128 -0.73612,10.01164 -0.67811,23.18428 l 0.10548,23.95026 -9.58314,0.28635 -9.58314,0.28635 z"
         style="fill:#000000"
         id="path1243" />
      <rect
         style="fill:#000000;stroke-width:0.797604;-inkscape-stroke:none;paint-order:stroke fill markers;stop-color:#000000"
         id="rect1326"
         width="159.32465"
         height="11.760501"
         x="-508.67618"
         y="-398.26614" />
    </g>
  </g>
</svg>
