<?xml version="1.0" encoding="UTF-8" standalone="no"?>
<!-- Created with Inkscape (http://www.inkscape.org/) -->

<svg
   width="700"
   height="100"
   viewBox="0 0 185.20833 26.458333"
   version="1.1"
   id="svg1"
   inkscape:version="1.4 (e7c3feb100, 2024-10-09)"
   sodipodi:docname="cnp-banner.svg"
   xmlns:inkscape="http://www.inkscape.org/namespaces/inkscape"
   xmlns:sodipodi="http://sodipodi.sourceforge.net/DTD/sodipodi-0.dtd"
   xmlns="http://www.w3.org/2000/svg"
   xmlns:svg="http://www.w3.org/2000/svg">
  <sodipodi:namedview
     id="namedview1"
     pagecolor="#ffffff"
     bordercolor="#000000"
     borderopacity="0.25"
     inkscape:showpageshadow="2"
     inkscape:pageopacity="0.0"
     inkscape:pagecheckerboard="0"
     inkscape:deskcolor="#d1d1d1"
     inkscape:document-units="mm"
     inkscape:zoom="0.71179155"
     inkscape:cx="303.45963"
     inkscape:cy="187.55491"
     inkscape:window-width="1920"
     inkscape:window-height="1008"
     inkscape:window-x="0"
     inkscape:window-y="0"
     inkscape:window-maximized="1"
     inkscape:current-layer="layer1" />
  <defs
     id="defs1" />
  <g
     inkscape:label="Layer 1"
     inkscape:groupmode="layer"
     id="layer1">
    <rect
       style="fill:#ffffff;stroke-width:0.264583;-inkscape-stroke:none;paint-order:stroke fill markers"
       id="rect1"
       width="185.20833"
       height="26.458332"
       x="3.4769374e-07"
       y="0" />
    <g
       id="g2"
       transform="matrix(0.23571432,0,0,0.23571432,67.837276,-0.74839165)">
      <rect
         style="fill:#ffffff;stroke-width:0.237056;-inkscape-stroke:none;paint-order:stroke fill markers;stop-color:#000000"
         id="rect1073"
         width="79.375"
         height="79.375"
         x="-156.2364"
         y="-8.4987068"
         transform="rotate(-135.57968)" />
      <path
         d="m 132.55756,83.218881 c -1.45087,-1.07808 -1.84684,-2.59607 -0.99285,-4.02673 0.54618,-0.89584 7.87631,-10.06176 11.2959,-14.1249 1.06183,-1.26167 1.9306,-2.363 1.9306,-2.4474 0,-0.0844 -6.83635,-0.15346 -15.1919,-0.15346 -8.35554,0 -15.38463,-0.074 -15.6202,-0.16435 -0.73819,-0.28327 -1.20248,-1.57864 -1.20248,-3.3549 0,-1.93603 0.36655,-3.21887 1.01068,-3.53714 0.24449,-0.12081 7.31893,-0.27918 15.72098,-0.35194 l 15.27645,-0.13229 -1.9037,-2.24896 -11.50805,-13.60601 c -0.83569,-1.42821 -0.0855,-3.37279 1.59567,-4.13606 2.32887,-1.05734 3.88706,-0.26685 6.08757,2.1005 l 22.13915,21.69565 -23.95955,24.44933 c -1.78729,1.82382 -3.75874,0.53759 -4.67827,0.0387 z"
         style="fill:#000000;stroke-width:0.264583"
         id="path953-7"
         sodipodi:nodetypes="ccssssssscccscccc" />
      <path
         d="m 120.13315,84.150121 c -1.12651,-0.20242 -1.88419,-0.91766 -2.16629,-2.04496 -0.0953,-0.38064 -0.0841,-1.27268 0.0209,-1.66677 0.17999,-0.67594 0.65632,-1.33366 1.19401,-1.64878 0.57143,-0.33488 1.51452,-0.46224 2.21796,-0.29954 0.93337,0.21589 1.64653,0.94136 1.91183,1.94483 0.11255,0.42567 0.11327,1.34826 0.003,1.76919 -0.24116,0.90721 -0.85714,1.57157 -1.70047,1.83404 -0.39354,0.12248 -1.11633,0.1772 -1.47926,0.11199 z m 1.01433,-1.09621 c 0.37224,-0.11055 0.68366,-0.39029 0.85405,-0.76723 0.11594,-0.25648 0.13269,-0.37842 0.13269,-0.96662 0,-0.65007 -0.006,-0.68612 -0.18717,-1.0533 -0.29739,-0.60407 -0.77766,-0.86872 -1.4636,-0.80652 -0.41619,0.0377 -0.75054,0.21803 -0.99189,0.53485 -0.27852,0.36566 -0.36924,0.75248 -0.34215,1.45897 0.0193,0.50517 0.0449,0.63742 0.16873,0.87508 0.19527,0.37474 0.42541,0.58209 0.78326,0.70568 0.36708,0.1268 0.66508,0.13224 1.04608,0.0191 z m -35.997586,-1.76067 v -2.79972 h 0.604838 0.604811 l 1.043411,1.55385 c 0.573854,0.85461 1.13321,1.67975 1.242986,1.83364 l 0.199575,0.27979 v -1.83364 -1.83364 h 0.587957 0.587931 v 2.79972 2.79972 h -0.603277 -0.603303 l -1.10617,-1.60983 c -0.608383,-0.88542 -1.15525,-1.67284 -1.215284,-1.74983 -0.108823,-0.13961 -0.109114,-0.13532 -0.110358,1.60984 v 1.74982 h -0.61595 -0.61595 z m 5.935372,0 v -2.79972 h 1.791837 1.791812 v 0.53195 0.53195 h -1.203881 -1.203881 v 0.61593 0.61594 h 1.119902 1.119876 v 0.50277 0.50277 l -1.105853,0.0152 -1.105932,0.0152 v 0.60615 0.60614 l 1.206659,-0.006 c 0.663654,-0.003 1.218036,0.005 1.231874,0.0189 0.01402,0.0137 0.0172,0.25398 0.0071,0.53385 l -0.01799,0.50887 h -1.815836 -1.815862 z m 5.18562,1.39391 c 0.50887,-0.7732 0.91242,-1.43911 0.89683,-1.4798 -0.0156,-0.0407 -0.4032,-0.63646 -0.86127,-1.32392 -0.45802,-0.68746 -0.85156,-1.28142 -0.87453,-1.31992 -0.0324,-0.0545 0.11399,-0.07 0.66117,-0.07 h 0.70281 l 0.56836,0.87137 0.56832,0.87136 0.56597,-0.87114 0.56594,-0.87113 0.65794,-2.3e-4 c 0.361854,-1.1e-4 0.657944,0.013 0.657944,0.0291 0,0.0161 -0.383784,0.61459 -0.852804,1.32987 -0.46903,0.71527 -0.85254,1.35088 -0.85225,1.41248 0,0.0616 0.40952,0.72303 0.90935,1.46985 l 0.908844,1.35787 h -0.720174 -0.72017 l -0.58298,-0.89427 -0.58296,-0.89426 -0.5824,0.89426 -0.58235,0.89426 h -0.68839 -0.68839 z m 6.349234,-0.86196 v -2.26777 h -0.86791 -0.86789 v -0.53195 -0.53195 h 2.29579 2.29577 v 0.53195 0.53195 h -0.81196 -0.81187 v 2.26777 2.26777 h -0.61595 -0.61595 z m 5.37549,-0.53829 v -2.80606 l 1.35787,0.0251 c 1.56379,0.0289 1.77927,0.0784 2.27147,0.52086 0.40214,0.36156 0.54123,0.70722 0.54176,1.34649 0,0.4552 -0.0169,0.54222 -0.16851,0.83832 -0.11337,0.22173 -0.25821,0.39786 -0.4404,0.53555 -0.41629,0.31464 -0.73226,0.39826 -1.61888,0.42848 l -0.7724,0.0263 0.0164,0.94555 0.0164,0.94556 -0.60198,-6e-5 -0.6019,-1.1e-4 z m 2.55992,-0.19915 c 0.27379,-0.12994 0.4073,-0.37161 0.40757,-0.73777 2.1e-4,-0.34865 -0.10724,-0.56367 -0.35735,-0.71477 -0.14261,-0.0862 -0.28667,-0.1054 -0.79034,-0.10557 l -0.61592,-2.3e-4 -0.0156,0.82592 -0.0156,0.82592 h 0.595 c 0.43976,0 0.64635,-0.0244 0.79203,-0.0935 z m 2.42359,0.1999 v -2.80531 l 1.41388,0.0233 c 1.58869,0.0261 1.80776,0.0711 2.2688,0.46574 0.64378,0.55106 0.75737,1.70656 0.2382,2.42324 -0.15367,0.21212 -0.52951,0.53202 -0.68662,0.58439 -0.0489,0.0163 0.6273,1.21488 1.12163,1.98799 l 0.0806,0.12599 h -0.69387 -0.69387 l -0.53046,-0.97823 -0.53044,-0.97822 -0.37796,-0.002 -0.37795,-0.002 v 0.97991 0.9799 h -0.61595 -0.61593 v -2.80531 z m 2.62982,-0.26047 c 0.50268,-0.25359 0.54642,-1.08912 0.0732,-1.39924 -0.11644,-0.0763 -0.29922,-0.10301 -0.81076,-0.11842 l -0.66043,-0.0199 v 0.81782 0.81782 l 0.60193,-1.1e-4 c 0.46162,-6e-5 0.64719,-0.0229 0.79602,-0.098 z m -25.195557,-4.23547 c -1.241928,-0.27659 -1.979798,-1.35217 -1.98247,-2.88973 -0.0026,-0.92285 0.198279,-1.53911 0.668972,-2.06263 0.771578,-0.85819 2.09632,-1.12668 3.314012,-0.67169 0.599308,0.22394 1.232271,1.01155 1.336437,1.66307 l 0.03699,0.23133 h -0.648441 -0.64852 l -0.117317,-0.26528 c -0.148961,-0.33675 -0.305779,-0.5066 -0.587825,-0.63679 -0.270325,-0.12475 -0.899266,-0.14114 -1.163691,-0.0303 -0.746892,0.31299 -1.100984,1.33312 -0.848333,2.44397 0.15076,0.66289 0.548375,1.07865 1.136094,1.18795 0.662094,0.12313 1.226688,-0.11662 1.467088,-0.62298 l 0.135202,-0.28473 h 0.627698 0.627697 l -0.08522,0.29397 c -0.179387,0.61874 -0.666565,1.22041 -1.17213,1.44759 -0.594307,0.26705 -1.427983,0.3451 -2.096241,0.19627 z m 4.255532,-2.83698 v -2.85896 l 1.553841,0.0173 c 1.74165,0.0193 1.82801,0.0366 2.29595,0.45935 0.77055,0.69616 0.64178,2.2391 -0.23537,2.8201 -0.14579,0.0965 -0.28985,0.18382 -0.32015,0.19393 -0.0304,0.0101 0.19378,0.42089 0.49805,0.91286 0.30433,0.49196 0.61064,0.98897 0.6808,1.10446 l 0.12756,0.20998 h -0.72483 -0.72485 l -0.58161,-1.0219 -0.58158,-1.0219 h -0.37772 -0.37772 v 1.0219 1.0219 h -0.61595 -0.615945 z m 2.652161,-0.29794 c 0.30876,-0.12902 0.42756,-0.33312 0.42756,-0.73472 0,-0.27308 -0.0265,-0.38238 -0.12142,-0.50318 -0.19468,-0.2475 -0.42013,-0.30874 -1.13667,-0.30874 h -0.64574 v 0.81192 0.81192 h 0.64574 c 0.42209,0 0.70972,-0.0267 0.83053,-0.0772 z m 2.779314,0.27318 v -2.88371 h 1.87582 1.87581 v 0.53088 0.53087 l -1.24589,0.0151 -1.24587,0.0151 -0.0159,0.62994 -0.0159,0.62994 h 1.17771 1.17777 v 0.53195 0.53194 h -1.17589 -1.17591 v 0.61491 0.61491 l 1.30185,0.015 1.30191,0.015 0.0161,0.54595 0.0161,0.54594 h -1.93381 -1.93382 z m 4.53557,2.86485 c 0,-0.0123 0.34933,-0.96434 0.77631,-2.11557 0.42699,-1.15123 0.89988,-2.42864 1.05085,-2.83868 l 0.27448,-0.74554 h 0.75377 c 0.57441,0 0.75901,0.0175 0.77562,0.0736 0.0212,0.0711 1.97409,5.34662 2.05423,5.54883 0.0368,0.0929 -0.008,0.0987 -0.64622,0.084 l -0.68572,-0.0158 -0.20979,-0.58795 -0.20976,-0.58794 -1.11453,-0.0151 -1.11448,-0.0151 -0.19809,0.60306 -0.19812,0.60306 -0.65426,0.0158 c -0.35989,0.009 -0.65429,0.006 -0.65429,-0.007 z m 3.22461,-3.3268 c -0.19291,-0.57744 -0.36325,-1.08769 -0.37852,-1.13389 -0.0153,-0.0462 -0.18682,0.39476 -0.38129,0.97991 -0.19444,0.58514 -0.3651,1.09539 -0.37925,1.13388 -0.0198,0.0538 0.14938,0.07 0.73202,0.07 h 0.75777 z m 3.83069,0.9939 v -2.35177 h -0.86794 -0.86791 v -0.50394 -0.50396 h 2.3518 2.35175 v 0.5025 0.50249 l -0.85392,0.0155 -0.85392,0.0154 -0.0145,2.33777 -0.0145,2.33777 h -0.61532 -0.61534 z m 3.86363,-0.53195 v -2.88371 h 1.87579 1.87581 l 6e-5,0.54595 5e-5,0.54594 -1.25992,-0.016 -1.25992,-0.016 v 0.64598 0.64598 h 1.17589 1.17586 v 0.53194 0.53195 h -1.17586 -1.17589 v 0.61594 0.61594 h 1.31585 1.31587 v 0.55994 0.55995 h -1.93179 -1.9318 z"
         style="fill:#000000;stroke-width:0.0559946"
         id="path996-5" />
      <path
         d="m 85.997863,42.113301 c -0.701702,-0.70171 -0.831586,-1.69085 -0.34208,-2.60549 0.169042,-0.31587 1.756092,-2.18327 3.526763,-4.14979 l 3.219424,-3.57549 -2.895706,-3.175 c -1.592633,-1.74625 -3.119728,-3.53219 -3.393493,-3.96875 -0.606134,-0.96652 -0.637407,-1.93468 -0.08789,-2.71925 0.362347,-0.5173 0.646694,-0.58804 2.363734,-0.58804 h 1.951858 l 4.309639,4.6261 c 2.370294,2.54436 4.400974,4.87297 4.512574,5.1747 0.12208,0.32998 0.0533,0.88519 -0.17243,1.39317 -0.5002,1.12533 -8.186048,9.48899 -9.092749,9.89461 -0.391953,0.17534 -1.283573,0.32417 -1.981411,0.33073 -1.004067,0.009 -1.404303,-0.12358 -1.918229,-0.6375 z m 18.463737,-10.12272 0.0691,-10.791385 h 2.55156 2.55156 l 4.19531,6.800235 c 2.30743,3.74013 4.28828,6.80599 4.40189,6.81302 0.11362,0.007 0.19522,-3.03293 0.18134,-6.75546 l -0.0252,-6.76825 2.39835,-0.09056 2.39835,-0.09056 v 10.83682 10.83682 l -2.68018,-0.0754 -2.68018,-0.0754 -4.00054,-6.13417 c -2.2003,-3.3738 -4.09385,-6.22537 -4.20788,-6.33684 -0.11402,-0.11146 -0.19476,2.64891 -0.17941,6.13417 l 0.0279,6.33684 -2.53554,0.0758 -2.53554,0.0758 z"
         style="fill:#000000;stroke-width:0.264583"
         id="path1243" />
      <rect
         style="fill:#000000;stroke-width:0.211033;-inkscape-stroke:none;paint-order:stroke fill markers;stop-color:#000000"
         id="rect1326"
         width="42.154644"
         height="3.1116326"
         x="61.955906"
         y="57.454102" />
    </g>
  </g>
</svg>
